<svg width="23" height="22" viewBox="0 0 23 22" fill="none" xmlns="http://www.w3.org/2000/svg">
<path d="M11.6151 21.2401C10.177 21.2401 8.80112 20.96 7.48744 20.4C6.17377 19.84 5.04331 19.0863 4.09608 18.1391C3.14885 17.1919 2.39522 16.0614 1.83518 14.7477C1.27514 13.4341 0.995117 12.0582 0.995117 10.62C0.995117 9.1819 1.27514 7.806 1.83518 6.49232C2.39522 5.17865 3.14885 4.0482 4.09608 3.10097C5.04331 2.15374 6.17377 1.4001 7.48744 0.840061C8.80112 0.28002 10.177 0 11.6151 0C13.0533 0 14.4292 0.28002 15.7429 0.840061C17.0565 1.4001 18.187 2.15374 19.1342 3.10097C20.0814 4.0482 20.8351 5.17865 21.3951 6.49232C21.9552 7.806 22.2352 9.1819 22.2352 10.62C22.2352 12.0582 21.9552 13.4341 21.3951 14.7477C20.8351 16.0614 20.0814 17.1919 19.1342 18.1391C18.187 19.0863 17.0565 19.84 15.7429 20.4C14.4292 20.96 13.0533 21.2401 11.6151 21.2401ZM16.9252 6.63752C16.9252 6.27799 16.7973 5.96685 16.5414 5.70412C16.2856 5.44138 15.971 5.31002 15.5977 5.31002H7.63264C7.27311 5.31002 6.96197 5.44138 6.69924 5.70412C6.4365 5.96685 6.30513 6.27799 6.30513 6.63752V7.96502H8.66975C9.47178 7.08002 10.4536 6.63752 11.6151 6.63752C12.7767 6.63752 13.7585 7.08002 14.5605 7.96502H16.9252V6.63752ZM8.96014 10.62C8.96014 11.3529 9.21942 11.9787 9.73798 12.4972C10.2565 13.0158 10.8823 13.275 11.6151 13.275C12.348 13.275 12.9738 13.0158 13.4923 12.4972C14.0109 11.9787 14.2702 11.3529 14.2702 10.62C14.2702 9.88714 14.0109 9.26141 13.4923 8.74286C12.9738 8.2243 12.348 7.96502 11.6151 7.96502C10.8823 7.96502 10.2565 8.2243 9.73798 8.74286C9.21942 9.26141 8.96014 9.88714 8.96014 10.62ZM16.9252 9.29253H15.3488C15.5147 9.74886 15.5977 10.1914 15.5977 10.62C15.5977 11.7263 15.2105 12.6666 14.4361 13.441C13.6617 14.2154 12.7214 14.6025 11.6151 14.6025C10.5089 14.6025 9.56858 14.2154 8.7942 13.441C8.01983 12.6666 7.63264 11.7263 7.63264 10.62C7.63264 10.1914 7.71561 9.74886 7.88154 9.29253H6.30513V14.6025C6.30513 14.9759 6.43304 15.2905 6.68887 15.5463C6.94469 15.8021 7.25928 15.93 7.63264 15.93H15.5977C15.971 15.93 16.2856 15.8021 16.5414 15.5463C16.7973 15.2905 16.9252 14.9759 16.9252 14.6025V9.29253Z" fill="#E5E5E5"/>
</svg>
