<svg width="23" height="22" viewBox="0 0 23 22" fill="none" xmlns="http://www.w3.org/2000/svg">
<path d="M19.0597 3.12528C17.0919 1.09967 14.3718 0 11.5937 0C5.69046 0 0.944631 4.80366 1.00246 10.6491C1.00246 12.5011 1.52334 14.2953 2.39153 15.9158L0.886719 21.414L6.50065 19.9671C8.06329 20.8353 9.7995 21.2404 11.5359 21.2404C17.3813 21.2404 22.1271 16.4367 22.1271 10.5913C22.1271 7.75536 21.0274 5.09305 19.0598 3.12528H19.0597ZM11.5937 19.4463C10.0311 19.4463 8.46843 19.0412 7.13727 18.2309L6.79005 18.0573L3.43329 18.9254L4.30139 15.6265L4.06991 15.2792C1.52334 11.1701 2.73875 5.72967 6.90579 3.18311C11.0728 0.636621 16.4553 1.85203 19.0018 6.01907C21.5483 10.1861 20.3329 15.5686 16.166 18.1151C14.8347 18.9832 13.2143 19.4462 11.5937 19.4462V19.4463ZM16.6868 13.0222L16.0501 12.7328C16.0501 12.7328 15.1242 12.3276 14.5454 12.0382C14.4875 12.0382 14.4297 11.9803 14.3718 11.9803C14.1981 11.9803 14.0824 12.0382 13.9666 12.0961C13.9666 12.0961 13.9088 12.154 13.0985 13.08C13.0406 13.1957 12.9249 13.2536 12.8091 13.2536H12.7512C12.6934 13.2536 12.5776 13.1957 12.5197 13.1379L12.2303 13.0222C11.5937 12.7328 11.015 12.3854 10.5519 11.9225C10.4362 11.8067 10.2625 11.691 10.1468 11.5753C9.74167 11.1701 9.33653 10.7071 9.04722 10.1862L8.98931 10.0704C8.93148 10.0125 8.93148 9.9547 8.87356 9.83896C8.87356 9.72322 8.87356 9.60748 8.93148 9.54957C8.93148 9.54957 9.16296 9.26017 9.33653 9.0866C9.45236 8.97077 9.51019 8.7972 9.62593 8.68146C9.74167 8.50781 9.79958 8.27632 9.74167 8.10267C9.68384 7.81327 8.98931 6.25064 8.81573 5.90341C8.69991 5.72976 8.58425 5.67193 8.4106 5.61401H7.77398C7.65815 5.61401 7.54249 5.67193 7.42667 5.67193L7.36875 5.72976C7.25301 5.78767 7.13727 5.90341 7.02153 5.96124C6.90579 6.07706 6.84788 6.19272 6.73213 6.30855C6.327 6.82943 6.09551 7.46605 6.09551 8.10267C6.09551 8.56564 6.21125 9.02869 6.38491 9.43382L6.44282 9.60748C6.9637 10.7071 7.65815 11.691 8.58425 12.5591L8.81573 12.7906C8.98931 12.9642 9.16296 13.08 9.2787 13.2536C10.4941 14.2954 11.8831 15.0478 13.4457 15.4529C13.6194 15.5107 13.8509 15.5107 14.0245 15.5686H14.6032C14.8926 15.5686 15.2399 15.4529 15.4714 15.3372C15.645 15.2214 15.7607 15.2214 15.8765 15.1057L15.9923 14.9898C16.108 14.8741 16.2238 14.8163 16.3395 14.7005C16.4553 14.5848 16.571 14.469 16.6289 14.3532C16.7447 14.1217 16.8025 13.8323 16.8604 13.543V13.1379C16.8604 13.1379 16.8025 13.08 16.6868 13.0222Z" fill="#E5E5E5"/>
</svg>
